<svg width="48" height="48" viewBox="0 0 48 48" fill="none" xmlns="http://www.w3.org/2000/svg">
<path d="M4 6C4 4.89543 4.89543 4 6 4H24V24H6C4.89543 24 4 23.1046 4 22V6Z" fill="#9DE7FC"/>
<path d="M4 6C4 4.89543 4.89543 4 6 4H24V24H6C4.89543 24 4 23.1046 4 22V6Z" fill="url(#paint0_radial_54_73)"/>
<path d="M4 6C4 4.89543 4.89543 4 6 4H24V24H6C4.89543 24 4 23.1046 4 22V6Z" fill="url(#paint1_radial_54_73)"/>
<path d="M4 6C4 4.89543 4.89543 4 6 4H24V24H6C4.89543 24 4 23.1046 4 22V6Z" fill="url(#paint2_linear_54_73)"/>
<path d="M34 4H42C43.1046 4 44 4.89543 44 6V24H34V4Z" fill="url(#paint3_linear_54_73)"/>
<path d="M34 4H42C43.1046 4 44 4.89543 44 6V24H34V4Z" fill="url(#paint4_radial_54_73)"/>
<path d="M34 4H42C43.1046 4 44 4.89543 44 6V24H34V4Z" fill="url(#paint5_linear_54_73)"/>
<path d="M34 4H42C43.1046 4 44 4.89543 44 6V24H34V4Z" fill="url(#paint6_radial_54_73)"/>
<path d="M4 16C4 14.8954 4.89543 14 6 14H24V24H6C4.89543 24 4 23.1046 4 22V16Z" fill="#3BCDFD"/>
<path d="M4 16C4 14.8954 4.89543 14 6 14H24V24H6C4.89543 24 4 23.1046 4 22V16Z" fill="url(#paint7_radial_54_73)"/>
<path d="M4 16C4 14.8954 4.89543 14 6 14H24V24H6C4.89543 24 4 23.1046 4 22V16Z" fill="url(#paint8_radial_54_73)"/>
<path d="M4 16C4 14.8954 4.89543 14 6 14H24V24H6C4.89543 24 4 23.1046 4 22V16Z" fill="url(#paint9_radial_54_73)"/>
<path d="M34 14H42C43.1046 14 44 14.8954 44 16V24H34V14Z" fill="url(#paint10_linear_54_73)"/>
<path d="M34 14H42C43.1046 14 44 14.8954 44 16V24H34V14Z" fill="url(#paint11_radial_54_73)"/>
<path d="M34 14H42C43.1046 14 44 14.8954 44 16V24H34V14Z" fill="url(#paint12_linear_54_73)"/>
<path d="M34 14H42C43.1046 14 44 14.8954 44 16V24H34V14Z" fill="url(#paint13_radial_54_73)"/>
<path d="M34 14H42C43.1046 14 44 14.8954 44 16V24H34V14Z" fill="url(#paint14_linear_54_73)"/>
<path d="M34 14H42C43.1046 14 44 14.8954 44 16V24H34V14Z" fill="url(#paint15_radial_54_73)"/>
<path d="M24 4H34V24H24V4Z" fill="#68B3FC"/>
<path d="M24 4H34V24H24V4Z" fill="url(#paint16_radial_54_73)"/>
<path d="M24 4H34V24H24V4Z" fill="url(#paint17_linear_54_73)"/>
<path d="M24 4H34V24H24V4Z" fill="url(#paint18_radial_54_73)"/>
<path d="M24 4H34V24H24V4Z" fill="url(#paint19_radial_54_73)"/>
<path d="M34 24H44V42C44 43.1046 43.1046 44 42 44H34V24Z" fill="#4166F8"/>
<path d="M34 24H44V42C44 43.1046 43.1046 44 42 44H34V24Z" fill="url(#paint20_linear_54_73)"/>
<path d="M34 24H44V42C44 43.1046 43.1046 44 42 44H34V24Z" fill="url(#paint21_radial_54_73)"/>
<path d="M34 24H44V42C44 43.1046 43.1046 44 42 44H34V24Z" fill="url(#paint22_linear_54_73)"/>
<path d="M4 36C4 34.8954 4.89543 34 6 34H34V44H6C4.89543 44 4 43.1046 4 42V36Z" fill="#1148EC"/>
<path d="M4 36C4 34.8954 4.89543 34 6 34H34V44H6C4.89543 44 4 43.1046 4 42V36Z" fill="url(#paint23_linear_54_73)"/>
<path d="M4 36C4 34.8954 4.89543 34 6 34H34V44H6C4.89543 44 4 43.1046 4 42V36Z" fill="url(#paint24_linear_54_73)"/>
<path d="M4 36C4 34.8954 4.89543 34 6 34H34V44H6C4.89543 44 4 43.1046 4 42V36Z" fill="url(#paint25_radial_54_73)"/>
<path d="M4 26C4 24.8954 4.89543 24 6 24H34V34H6C4.89543 34 4 33.1046 4 32V26Z" fill="#3F82FD"/>
<path d="M4 26C4 24.8954 4.89543 24 6 24H34V34H6C4.89543 34 4 33.1046 4 32V26Z" fill="url(#paint26_linear_54_73)"/>
<path d="M4 26C4 24.8954 4.89543 24 6 24H34V34H6C4.89543 34 4 33.1046 4 32V26Z" fill="url(#paint27_radial_54_73)"/>
<path d="M4 26C4 24.8954 4.89543 24 6 24H34V34H6C4.89543 34 4 33.1046 4 32V26Z" fill="url(#paint28_linear_54_73)"/>
<path d="M34 44L24 44L24 34L34 34L34 44Z" fill="url(#paint29_linear_54_73)"/>
<path d="M34 44L24 44L24 34L34 34L34 44Z" fill="url(#paint30_linear_54_73)"/>
<path d="M34 44L24 44L24 34L34 34L34 44Z" fill="url(#paint31_linear_54_73)"/>
<defs>
<radialGradient id="paint0_radial_54_73" cx="0" cy="0" r="1" gradientUnits="userSpaceOnUse" gradientTransform="translate(19.5 5) rotate(142.253) scale(19.6023 14.1094)">
<stop offset="0.770643" stop-color="#9DE7FC" stop-opacity="0"/>
<stop offset="1" stop-color="#4E90F6"/>
</radialGradient>
<radialGradient id="paint1_radial_54_73" cx="0" cy="0" r="1" gradientUnits="userSpaceOnUse" gradientTransform="translate(12 9.5) rotate(-27.8973) scale(19.2354 10.0252)">
<stop offset="0.763094" stop-color="#9DE7FC" stop-opacity="0"/>
<stop offset="0.986871" stop-color="#4E90F6"/>
</radialGradient>
<linearGradient id="paint2_linear_54_73" x1="14" y1="4" x2="24" y2="10" gradientUnits="userSpaceOnUse">
<stop stop-color="#61DAFD" stop-opacity="0"/>
<stop offset="1" stop-color="#4FBAFD"/>
</linearGradient>
<linearGradient id="paint3_linear_54_73" x1="39" y1="4" x2="39" y2="24" gradientUnits="userSpaceOnUse">
<stop stop-color="#BB98FB"/>
<stop offset="1" stop-color="#214FE1"/>
</linearGradient>
<radialGradient id="paint4_radial_54_73" cx="0" cy="0" r="1" gradientUnits="userSpaceOnUse" gradientTransform="translate(42 8) rotate(-135) scale(10.6066 9.80293)">
<stop offset="0.721443" stop-color="#BB98FB" stop-opacity="0"/>
<stop offset="1" stop-color="#4457D3"/>
</radialGradient>
<linearGradient id="paint5_linear_54_73" x1="36" y1="9" x2="34" y2="9" gradientUnits="userSpaceOnUse">
<stop offset="0.322015" stop-color="#BB98FB" stop-opacity="0"/>
<stop offset="0.948884" stop-color="#4457D3" stop-opacity="0.54"/>
</linearGradient>
<radialGradient id="paint6_radial_54_73" cx="0" cy="0" r="1" gradientUnits="userSpaceOnUse" gradientTransform="translate(39 8.5) rotate(-61.6992) scale(7.38241 10.0876)">
<stop offset="0.30936" stop-color="#BB98FB" stop-opacity="0"/>
<stop offset="0.948884" stop-color="#4457D3" stop-opacity="0.54"/>
</radialGradient>
<radialGradient id="paint7_radial_54_73" cx="0" cy="0" r="1" gradientUnits="userSpaceOnUse" gradientTransform="translate(12.5 26) rotate(-24.3045) scale(17.0074 18.5385)">
<stop offset="0.403846" stop-color="#3BCDFD" stop-opacity="0"/>
<stop offset="1" stop-color="#225DD7"/>
</radialGradient>
<radialGradient id="paint8_radial_54_73" cx="0" cy="0" r="1" gradientUnits="userSpaceOnUse" gradientTransform="translate(8.5 1.5) rotate(95.9469) scale(24.1299 47.4713)">
<stop offset="0.86026" stop-color="#3BCDFD" stop-opacity="0"/>
<stop offset="0.958517" stop-color="#225DD7" stop-opacity="0.35"/>
</radialGradient>
<radialGradient id="paint9_radial_54_73" cx="0" cy="0" r="1" gradientUnits="userSpaceOnUse" gradientTransform="translate(6 20) scale(18.5 23.8268)">
<stop offset="0.85889" stop-color="#3BCDFD" stop-opacity="0"/>
<stop offset="1" stop-color="#0038D1" stop-opacity="0.58"/>
</radialGradient>
<linearGradient id="paint10_linear_54_73" x1="44" y1="19" x2="29.5" y2="19" gradientUnits="userSpaceOnUse">
<stop stop-color="#4981FC"/>
<stop offset="1" stop-color="#115FDD"/>
</linearGradient>
<radialGradient id="paint11_radial_54_73" cx="0" cy="0" r="1" gradientUnits="userSpaceOnUse" gradientTransform="translate(34 15.5) scale(2.5 5.34301)">
<stop stop-color="#0034FF" stop-opacity="0.51"/>
<stop offset="1" stop-color="#4E7EFC" stop-opacity="0"/>
</radialGradient>
<linearGradient id="paint12_linear_54_73" x1="34" y1="18" x2="39" y2="18" gradientUnits="userSpaceOnUse">
<stop stop-color="#042E90" stop-opacity="0.64"/>
<stop offset="0.322903" stop-color="#4E7EFC" stop-opacity="0"/>
</linearGradient>
<radialGradient id="paint13_radial_54_73" cx="0" cy="0" r="1" gradientUnits="userSpaceOnUse" gradientTransform="translate(34.5 21) rotate(-16.3895) scale(8.86002 24.1042)">
<stop stop-color="#2076FE" stop-opacity="0"/>
<stop offset="1" stop-color="#6570FD"/>
</radialGradient>
<linearGradient id="paint14_linear_54_73" x1="37" y1="15" x2="37" y2="13.5" gradientUnits="userSpaceOnUse">
<stop offset="0.548077" stop-color="#4E7EFC" stop-opacity="0"/>
<stop offset="0.697115" stop-color="white"/>
</linearGradient>
<radialGradient id="paint15_radial_54_73" cx="0" cy="0" r="1" gradientUnits="userSpaceOnUse" gradientTransform="translate(29.5 28.5) rotate(138.945) scale(20.5548 12.3043)">
<stop offset="0.932692" stop-color="#4E7EFC" stop-opacity="0"/>
<stop offset="0.980769" stop-color="white" stop-opacity="0.43"/>
</radialGradient>
<radialGradient id="paint16_radial_54_73" cx="0" cy="0" r="1" gradientUnits="userSpaceOnUse" gradientTransform="translate(24.5 24) rotate(-8.97263) scale(9.61769 33.9618)">
<stop offset="0.0542423" stop-color="#6CB9FD" stop-opacity="0"/>
<stop offset="1" stop-color="#909AFF" stop-opacity="0.8"/>
</radialGradient>
<linearGradient id="paint17_linear_54_73" x1="29" y1="24" x2="29" y2="11" gradientUnits="userSpaceOnUse">
<stop stop-color="#0F38BF" stop-opacity="0.77"/>
<stop offset="0.300709" stop-color="#71B8FC" stop-opacity="0"/>
</linearGradient>
<radialGradient id="paint18_radial_54_73" cx="0" cy="0" r="1" gradientUnits="userSpaceOnUse" gradientTransform="translate(29 24.5) rotate(-180) scale(18.5 3.01977)">
<stop offset="0.153846" stop-color="#0E38BE" stop-opacity="0.77"/>
<stop offset="0.365385" stop-color="#3E72DC" stop-opacity="0"/>
</radialGradient>
<radialGradient id="paint19_radial_54_73" cx="0" cy="0" r="1" gradientUnits="userSpaceOnUse" gradientTransform="translate(24 9) scale(3.5 26.4328)">
<stop offset="0.0215503" stop-color="#1458EB" stop-opacity="0.73"/>
<stop offset="0.349971" stop-color="#71B8FC" stop-opacity="0"/>
</radialGradient>
<linearGradient id="paint20_linear_54_73" x1="39" y1="24" x2="39" y2="26" gradientUnits="userSpaceOnUse">
<stop stop-color="#1B43C9"/>
<stop offset="1" stop-color="#3C68FD" stop-opacity="0"/>
</linearGradient>
<radialGradient id="paint21_radial_54_73" cx="0" cy="0" r="1" gradientUnits="userSpaceOnUse" gradientTransform="translate(36.5 30.5) rotate(61.1134) scale(16.5605 28.1856)">
<stop stop-color="#3C68FD" stop-opacity="0"/>
<stop offset="0.886803" stop-color="#0048FF"/>
</radialGradient>
<linearGradient id="paint22_linear_54_73" x1="36.5" y1="30.5" x2="33.5" y2="30.5" gradientUnits="userSpaceOnUse">
<stop offset="0.80588" stop-color="#3C68FD" stop-opacity="0"/>
<stop offset="0.845489" stop-color="white"/>
</linearGradient>
<linearGradient id="paint23_linear_54_73" x1="21" y1="39.5" x2="21" y2="34" gradientUnits="userSpaceOnUse">
<stop offset="0.63383" stop-color="#1148EC" stop-opacity="0"/>
<stop offset="1" stop-color="#0A2986" stop-opacity="0.8"/>
</linearGradient>
<linearGradient id="paint24_linear_54_73" x1="24.5" y1="38.5" x2="34" y2="38.5" gradientUnits="userSpaceOnUse">
<stop offset="0.63383" stop-color="#1148EC" stop-opacity="0"/>
<stop offset="1" stop-color="#0A2986" stop-opacity="0.72"/>
</linearGradient>
<radialGradient id="paint25_radial_54_73" cx="0" cy="0" r="1" gradientUnits="userSpaceOnUse" gradientTransform="translate(16.5 52.5) rotate(-52.6507) scale(23.9008 22.78)">
<stop offset="0.692663" stop-color="#1148EC" stop-opacity="0"/>
<stop offset="1" stop-color="#0A2986" stop-opacity="0.72"/>
</radialGradient>
<linearGradient id="paint26_linear_54_73" x1="19.75" y1="30" x2="34.3485" y2="26.7154" gradientUnits="userSpaceOnUse">
<stop stop-color="#3F82FD" stop-opacity="0"/>
<stop offset="1" stop-color="#092FB7"/>
</linearGradient>
<radialGradient id="paint27_radial_54_73" cx="0" cy="0" r="1" gradientTransform="matrix(-28.5 -2 1.6706 -10.5804 33.25 29.5)" gradientUnits="userSpaceOnUse">
<stop stop-color="#3F82FD" stop-opacity="0"/>
<stop offset="1" stop-color="#509EFC" stop-opacity="0.47"/>
</radialGradient>
<linearGradient id="paint28_linear_54_73" x1="17.5" y1="24" x2="17.5" y2="27" gradientUnits="userSpaceOnUse">
<stop stop-color="white"/>
<stop offset="0.0117188" stop-color="#509EFC" stop-opacity="0"/>
</linearGradient>
<linearGradient id="paint29_linear_54_73" x1="33" y1="38" x2="24.6105" y2="45.5" gradientUnits="userSpaceOnUse">
<stop stop-color="#63AAF8"/>
<stop offset="1" stop-color="#5681FF"/>
</linearGradient>
<linearGradient id="paint30_linear_54_73" x1="34" y1="40" x2="32" y2="40" gradientUnits="userSpaceOnUse">
<stop offset="0.0215503" stop-color="#1458EB" stop-opacity="0.6"/>
<stop offset="0.409687" stop-color="#71B8FC" stop-opacity="0"/>
</linearGradient>
<linearGradient id="paint31_linear_54_73" x1="29" y1="34" x2="29" y2="44" gradientUnits="userSpaceOnUse">
<stop stop-color="#0026A4" stop-opacity="0.67"/>
<stop offset="0.150183" stop-color="#71B8FC" stop-opacity="0"/>
</linearGradient>
</defs>
</svg>
